<svg fill="#000000" height="200px" width="200px" version="1.1" id="Layer_1"
    xmlns="http://www.w3.org/2000/svg" xmlns:xlink="http://www.w3.org/1999/xlink"
    viewBox="0 0 512 512" xml:space="preserve"><g id="SVGRepo_bgCarrier" stroke-width="0"></g><g id="SVGRepo_tracerCarrier" stroke-linecap="round" stroke-linejoin="round"></g><g id="SVGRepo_iconCarrier"> <g> <g> <path d="M395.13,378.435c64.442,0,116.87-52.428,116.87-116.87c0-9.22-7.475-16.696-16.696-16.696h-33.391 c-32.672,0-62.249,13.482-83.478,35.168v-85.255c0-9.22-7.475-16.696-16.696-16.696h-66.783c-9.22,0-16.696,7.475-16.696,16.696 v283.826h-44.522V16.696c0-9.22-7.475-16.696-16.696-16.696h-66.783c-9.22,0-16.696,7.475-16.696,16.696v62.994 c-21.229-21.685-50.806-35.168-83.478-35.168H16.696C7.475,44.522,0,51.997,0,61.217c0,64.442,52.428,116.87,116.87,116.87h16.696 v101.95c-21.229-21.685-50.806-35.168-83.478-35.168H16.696C7.475,244.87,0,252.345,0,261.565 c0,64.442,52.428,116.87,116.87,116.87h16.696v100.174H83.478c-9.22,0-16.696,7.475-16.696,16.696S74.258,512,83.478,512 c5.993,0,330.165,0,345.043,0c9.22,0,16.696-7.475,16.696-16.696s-7.475-16.696-16.696-16.696h-50.087V378.435H395.13z M461.913,278.261h15.018c-7.757,38.055-41.488,66.783-81.801,66.783h-15.018C387.869,306.989,421.6,278.261,461.913,278.261z M116.87,144.696c-40.313,0-74.044-28.728-81.801-66.783h15.018c40.313,0,74.044,28.728,81.801,66.783H116.87z M116.87,345.043 c-40.313,0-74.044-28.728-81.801-66.783h15.018c40.313,0,74.044,28.728,81.801,66.783H116.87z M200.348,478.609h-33.391V378.435 h33.391V478.609z M200.348,345.043h-33.391V178.087h33.391V345.043z M200.348,144.696h-33.391V33.391h33.391V144.696z M345.043,478.609h-33.391V378.435h33.391V478.609z M345.043,345.043h-33.391V211.478h33.391V345.043z"></path> </g> </g> </g></svg>